<svg width="23" height="32" viewBox="0 0 23 32" fill="none" xmlns="http://www.w3.org/2000/svg">
<path d="M14.4822 32C13.543 32 12.5989 32 11.6597 32C11.6597 30.3995 11.6597 28.8041 11.6597 27.1576C10.9395 27.1576 10.2436 27.1576 9.55256 27.1576C9.38711 27.1576 9.42117 27.3007 9.42117 27.403C9.42117 28.937 9.42117 30.4711 9.42117 32C8.48196 32 7.53788 32 6.59867 32C6.59867 30.3688 6.59867 28.7376 6.59867 27.0706C4.70078 27.0706 2.83695 27.0706 0.987727 27.0706C0.973128 27.0195 0.968262 26.999 0.968262 26.9888C1.14345 25.8996 1.31864 24.8054 1.48896 23.7162C1.5133 23.5526 1.60576 23.5628 1.71282 23.5628C2.28705 23.5628 2.86615 23.5628 3.44039 23.5628C4.23361 23.5577 4.60832 23.1537 4.60832 22.3151C4.60832 18.0709 4.60832 13.8268 4.60832 9.58773C4.60832 8.66731 4.07301 8.06392 3.19707 8.01278C2.73476 7.98722 2.27245 7.98722 1.81015 7.9821C1.5279 7.97699 1.25051 7.9821 0.968262 7.9821C0.968262 6.92362 0.968262 5.89581 0.968262 4.83733C2.85155 4.83733 4.72024 4.83733 6.59867 4.83733C6.59867 3.20102 6.59867 1.60051 6.59867 0C7.53788 0 8.48196 0 9.42117 0C9.42117 1.50847 9.42117 3.01694 9.41144 4.52541C9.41144 4.70438 9.46497 4.76063 9.63529 4.75551C10.1219 4.73506 10.6086 4.73506 11.0952 4.72995C11.2753 4.72995 11.4602 4.72995 11.6597 4.72995C11.6597 3.11921 11.6597 1.5596 11.6597 0C12.5989 0 13.543 0 14.4822 0C14.4773 0.102269 14.4725 0.204538 14.4725 0.306807C14.4725 1.6721 14.4725 3.03228 14.4725 4.39757C14.4725 4.86801 14.4725 4.8629 14.9299 4.91403C16.1806 5.05721 17.4118 5.29243 18.57 5.86002C19.66 6.39182 20.5117 7.16906 20.9594 8.37584C21.2806 9.24513 21.3584 10.1451 21.2951 11.0604C21.1881 12.6251 20.4971 13.8166 19.2075 14.6143C19.1199 14.6705 19.0323 14.7216 18.9106 14.7932C18.9885 14.8341 19.0225 14.8495 19.0615 14.8648C19.5432 15.054 20.0494 15.2023 20.5117 15.4477C21.6358 16.046 22.4436 16.946 22.7599 18.2653C23.0811 19.5845 23.0081 20.9038 22.6967 22.2077C22.4242 23.3378 21.9132 24.3298 21.0567 25.0968C20.0883 25.9661 18.9252 26.4263 17.7038 26.682C16.7305 26.8814 15.7329 26.9632 14.7401 27.0757C14.526 27.1013 14.4676 27.1729 14.4725 27.3877C14.4871 27.7814 14.4773 28.17 14.4773 28.5638C14.4773 29.6989 14.4773 30.8495 14.4822 32ZM9.4747 23.5628C10.3458 23.5628 11.1731 23.5833 11.9955 23.5577C13.1148 23.5219 14.2292 23.3941 15.29 22.985C15.9567 22.7293 16.5894 22.3867 16.9689 21.7168C17.7135 20.4129 17.3242 18.7613 16.0735 17.9891C15.1635 17.4267 14.1513 17.1761 13.105 17.125C11.9955 17.0738 10.886 17.0892 9.77642 17.0585C9.5331 17.0534 9.46497 17.125 9.46497 17.3857C9.4747 19.3442 9.46984 21.3027 9.46984 23.2611C9.4747 23.3531 9.4747 23.4452 9.4747 23.5628ZM9.47957 11.1371C9.47957 12.0473 9.47957 12.9626 9.47957 13.8728C9.47957 14.016 9.48443 14.1131 9.66936 14.1182C11.0903 14.1438 12.5065 14.1387 13.8934 13.7501C14.6136 13.5455 15.2414 13.1774 15.6793 12.5484C16.346 11.5871 16.1222 9.99681 15.2414 9.22467C14.526 8.60083 13.6549 8.3605 12.7644 8.2838C11.7473 8.19687 10.7254 8.22244 9.70342 8.18664C9.5039 8.18153 9.47957 8.27868 9.47957 8.45254C9.47957 9.3474 9.4747 10.2423 9.47957 11.1371Z" fill="white"/>
</svg>
