<svg width="25" height="28" viewBox="0 0 25 28" fill="none" xmlns="http://www.w3.org/2000/svg">
<path d="M21.1237 19.6V20.0167L21.4196 20.3101L23.9305 22.8H1.96407L4.47494 20.3101L4.7708 20.0167V19.6V11.9C4.7708 8.10868 7.47127 4.86481 11.0502 4.05536L11.8296 3.87909V3.08V2.1C11.8296 1.47016 12.2916 1 12.9473 1C13.6029 1 14.0649 1.47016 14.0649 2.1V3.08V3.87909L14.8443 4.05536C18.4233 4.86481 21.1237 8.10868 21.1237 11.9V19.6ZM14.4598 26.2C14.1324 26.6796 13.5777 27 12.9473 27C12.3169 27 11.7621 26.6796 11.4347 26.2H14.4598Z" stroke="#54669C" stroke-width="2"/>
</svg>
