<svg width="65" height="68" viewBox="0 0 65 68" fill="none" xmlns="http://www.w3.org/2000/svg">
<g filter="url(#filter0_d_54_362)">
<path d="M41.1237 34.6V35.0167L41.4196 35.3101L43.9305 37.8H21.9641L24.4749 35.3101L24.7708 35.0167V34.6V26.9C24.7708 23.1087 27.4713 19.8648 31.0502 19.0554L31.8296 18.8791V18.08V17.1C31.8296 16.4702 32.2916 16 32.9473 16C33.6029 16 34.0649 16.4702 34.0649 17.1V18.08V18.8791L34.8443 19.0554C38.4233 19.8648 41.1237 23.1087 41.1237 26.9V34.6ZM34.4598 41.2C34.1324 41.6796 33.5777 42 32.9473 42C32.3169 42 31.7621 41.6796 31.4347 41.2H34.4598Z" stroke="#54669C" stroke-width="2"/>
</g>
<defs>
<filter id="filter0_d_54_362" x="0.947266" y="0" width="64" height="68" filterUnits="userSpaceOnUse" color-interpolation-filters="sRGB">
<feFlood flood-opacity="0" result="BackgroundImageFix"/>
<feColorMatrix in="SourceAlpha" type="matrix" values="0 0 0 0 0 0 0 0 0 0 0 0 0 0 0 0 0 0 127 0" result="hardAlpha"/>
<feOffset dy="5"/>
<feGaussianBlur stdDeviation="10"/>
<feColorMatrix type="matrix" values="0 0 0 0 0 0 0 0 0 0.592157 0 0 0 0 0.909804 0 0 0 0.4 0"/>
<feBlend mode="normal" in2="BackgroundImageFix" result="effect1_dropShadow_54_362"/>
<feBlend mode="normal" in="SourceGraphic" in2="effect1_dropShadow_54_362" result="shape"/>
</filter>
</defs>
</svg>
